<svg width="230" height="86" viewBox="0 0 230 86" fill="none" xmlns="http://www.w3.org/2000/svg">
<path d="M12.54 64H4.86V20.14H12.54V38.26H31.98V20.14H39.66V64H31.98V45.4H12.54V64ZM45.7313 77.74V71.62H50.1113C52.9913 71.62 54.7913 70.96 56.0513 67.48L56.8913 65.26L44.9513 34.36H52.6913L60.3113 55.96L68.3513 34.36H75.9113L61.3913 70.6C59.1713 76.12 56.0513 78.4 51.1913 78.4C49.1513 78.4 47.3513 78.16 45.7313 77.74ZM86.8491 64H80.0691V19.36H87.3891V38.68C89.3091 35.38 93.2691 33.4 97.7691 33.4C106.229 33.4 111.389 40 111.389 49.36C111.389 58.48 105.809 64.78 97.2891 64.78C92.8491 64.78 89.0691 62.8 87.3291 59.38L86.8491 64ZM87.4491 49.06C87.4491 54.4 90.7491 58.06 95.7891 58.06C100.949 58.06 104.009 54.34 104.009 49.06C104.009 43.78 100.949 40 95.7891 40C90.7491 40 87.4491 43.72 87.4491 49.06ZM135.818 34.24V41.02H133.118C127.838 41.02 124.538 43.84 124.538 49.6V64H117.218V34.42H124.118L124.538 38.74C125.798 35.8 128.618 33.82 132.578 33.82C133.598 33.82 134.618 33.94 135.818 34.24ZM144.432 28.42C141.912 28.42 139.932 26.44 139.932 23.98C139.932 21.52 141.912 19.6 144.432 19.6C146.832 19.6 148.812 21.52 148.812 23.98C148.812 26.44 146.832 28.42 144.432 28.42ZM140.772 64V34.36H148.092V64H140.772ZM167.835 64.78C159.255 64.78 153.915 58.48 153.915 49.3C153.915 40.06 159.315 33.46 168.255 33.46C172.395 33.46 176.055 35.2 177.915 38.14V19.36H185.175V64H178.455L177.975 59.38C176.175 62.8 172.335 64.78 167.835 64.78ZM169.455 58.06C174.555 58.06 177.855 54.4 177.855 49.06C177.855 43.72 174.555 40 169.455 40C164.355 40 161.235 43.78 161.235 49.06C161.235 54.34 164.355 58.06 169.455 58.06Z" fill="#262626"/>
<g filter="url(#filter0_i_6_10)">
<path d="M218 64C218 71.732 211.732 78 204 78C196.268 78 190 71.732 190 64C190 56.268 196.268 50 204 50C211.732 50 218 56.268 218 64ZM197 64C197 67.866 200.134 71 204 71C207.866 71 211 67.866 211 64C211 60.134 207.866 57 204 57C200.134 57 197 60.134 197 64Z" fill="#00868B"/>
</g>
<defs>
<filter id="filter0_i_6_10" x="190" y="50" width="28" height="30" filterUnits="userSpaceOnUse" color-interpolation-filters="sRGB">
<feFlood flood-opacity="0" result="BackgroundImageFix"/>
<feBlend mode="normal" in="SourceGraphic" in2="BackgroundImageFix" result="shape"/>
<feColorMatrix in="SourceAlpha" type="matrix" values="0 0 0 0 0 0 0 0 0 0 0 0 0 0 0 0 0 0 127 0" result="hardAlpha"/>
<feOffset dy="4"/>
<feGaussianBlur stdDeviation="1"/>
<feComposite in2="hardAlpha" operator="arithmetic" k2="-1" k3="1"/>
<feColorMatrix type="matrix" values="0 0 0 0 0.933333 0 0 0 0 0.933333 0 0 0 0 0.933333 0 0 0 0.25 0"/>
<feBlend mode="normal" in2="shape" result="effect1_innerShadow_6_10"/>
</filter>
</defs>
</svg>
